<svg width="125" height="20" viewBox="0 0 125 20" fill="none" xmlns="http://www.w3.org/2000/svg">
<path d="M9.13505 19.588C3.04505 19.567 0.168049 17.677 0.315049 13.099H5.54405C5.60705 14.296 6.61505 15.031 9.13505 15.052C11.361 15.073 12.39 14.443 12.39 13.624C12.39 13.057 12.075 12.469 10.353 12.217L8.08505 11.86C4.74605 11.314 0.735049 10.915 0.735049 6.4C0.735049 2.914 3.57005 0.771999 9.17705 0.771999C14.238 0.771999 17.766 2.179 17.661 7.219H12.474C12.264 6.043 11.277 5.308 9.05105 5.308C7.11905 5.308 6.32105 5.896 6.32105 6.694C6.32105 7.198 6.63605 7.807 7.98005 8.017L9.84905 8.332C13.356 8.92 18.165 9.025 18.165 13.855C18.165 17.698 15.183 19.609 9.13505 19.588Z" fill="black"/>
<path d="M31.9289 1.36H37.7459V19H31.9289V12.616H25.0829V19H19.2659V1.36H25.0829V7.744H31.9289V1.36Z" fill="black"/>
<path d="M48.9051 19.588C42.8361 19.588 38.9091 15.829 38.9091 10.18C38.9091 4.531 42.8361 0.771999 48.9051 0.771999C54.9741 0.771999 58.9011 4.531 58.9011 10.18C58.9011 15.829 54.9741 19.588 48.9051 19.588ZM48.9051 14.569C51.2151 14.569 53.1261 12.973 53.1261 10.18C53.1261 7.387 51.2151 5.791 48.9051 5.791C46.5951 5.791 44.6841 7.387 44.6841 10.18C44.6841 12.973 46.5951 14.569 48.9051 14.569Z" fill="black"/>
<path d="M60.0682 19V1.36H70.0853C74.8943 1.36 77.7502 3.502 77.7502 8.248C77.7502 12.994 74.8942 15.136 70.1062 15.136H65.8852V19H60.0682ZM65.8852 10.306H69.5812C70.9882 10.306 71.8913 9.613 71.8913 8.248C71.8913 6.883 70.9882 6.19 69.6022 6.19H65.8852V10.306Z" fill="black"/>
<path d="M80.6604 19.336C79.0854 19.336 77.7624 18.034 77.7624 16.48C77.7624 14.926 79.0854 13.624 80.6604 13.624C82.2354 13.624 83.5584 14.926 83.5584 16.48C83.5584 18.034 82.2354 19.336 80.6604 19.336Z" fill="black"/>
<path d="M94.6191 19.588C88.6761 19.588 84.7072 15.829 84.7072 10.18C84.7072 4.531 88.6761 0.771999 94.6191 0.771999C98.9241 0.771999 103.334 2.662 103.922 8.626H98.3782C97.8952 6.694 96.5301 5.791 94.6191 5.791C92.3091 5.791 90.4821 7.513 90.4821 10.18C90.4821 12.847 92.3091 14.569 94.6191 14.569C96.5301 14.569 97.8952 13.666 98.3782 11.692H103.922C103.334 17.698 98.9661 19.588 94.6191 19.588Z" fill="black"/>
<path d="M114.981 19.588C108.912 19.588 104.985 15.829 104.985 10.18C104.985 4.531 108.912 0.771999 114.981 0.771999C121.05 0.771999 124.977 4.531 124.977 10.18C124.977 15.829 121.05 19.588 114.981 19.588ZM114.981 14.569C117.291 14.569 119.202 12.973 119.202 10.18C119.202 7.387 117.291 5.791 114.981 5.791C112.671 5.791 110.76 7.387 110.76 10.18C110.76 12.973 112.671 14.569 114.981 14.569Z" fill="black"/>
</svg>
